<svg width="251" height="87" viewBox="0 0 251 87" fill="none" xmlns="http://www.w3.org/2000/svg">
<g clip-path="url(#clip0)">
<circle cx="39" cy="44" r="7" fill="#A855F7"/>
<path d="M26 44C26 51 12.866 51 8.99996 51C5.13397 51 1.99996 47.866 1.99996 44C1.99996 40.134 5.13397 37 8.99996 37C12.866 37 26 37 26 44Z" fill="#A855F7"/>
<path d="M24.7487 29.7487C19.799 34.6985 7.68342 22.5829 4.94975 19.8492C2.21608 17.1156 2.21608 12.6834 4.94975 9.94975C7.68342 7.21608 12.1156 7.21608 14.8492 9.94975C17.5829 12.6834 29.6985 24.799 24.7487 29.7487Z" fill="#A855F7"/>
<path d="M52.9497 29.7487C48 24.799 60.1155 12.6834 62.8492 9.94976C65.5829 7.21609 70.015 7.21609 72.7487 9.94976C75.4824 12.6834 75.4824 17.1156 72.7487 19.8493C70.015 22.5829 57.8995 34.6985 52.9497 29.7487Z" fill="#A855F7"/>
<path d="M51.9497 56.9498C56.8994 52 69.015 64.1156 71.7487 66.8492C74.4823 69.5829 74.4823 74.0151 71.7487 76.7487C69.015 79.4824 64.5828 79.4824 61.8492 76.7487C59.1155 74.0151 46.9999 61.8995 51.9497 56.9498Z" fill="#A855F7"/>
<path d="M25.7487 56.9497C30.6984 61.8995 18.5829 74.0151 15.8492 76.7487C13.1155 79.4824 8.68338 79.4824 5.94971 76.7487C3.21604 74.0151 3.21604 69.5829 5.94971 66.8492C8.68338 64.1156 20.7989 52 25.7487 56.9497Z" fill="#A855F7"/>
<path d="M52 44C52 37 65.134 37 69 37C72.866 37 76 40.134 76 44C76 47.866 72.866 51 69 51C65.134 51 52 51 52 44Z" fill="#A855F7"/>
<path d="M39 31C32 31 32 20.866 32 17C32 13.134 35.134 10 39 10C42.8659 10 46 13.134 46 17C46 20.866 46 31 39 31Z" fill="#D8B4FE"/>
<path d="M39 56C46 56 46 66.134 46 70C46 73.866 42.866 77 39 77C35.134 77 32 73.866 32 70C32 66.134 32 56 39 56Z" fill="#D8B4FE"/>
</g>
<path d="M100.523 70H106.557V45.4545C106.557 39.7017 110.75 35.6364 115.455 35.6364C120.031 35.6364 123.227 38.6278 123.227 43.1023V70H129.364V44.4318C129.364 39.3693 132.534 35.6364 138.057 35.6364C142.352 35.6364 146.034 37.9119 146.034 43.7159V70H152.068V43.7159C152.068 34.4858 147.108 30.2159 140.102 30.2159C134.477 30.2159 130.361 32.7983 128.341 36.8636H127.932C125.989 32.6705 122.562 30.2159 117.398 30.2159C112.284 30.2159 108.5 32.6705 106.864 36.8636H106.352V30.7273H100.523V70ZM163.101 70H169.135V30.7273H163.101V70ZM166.169 24.1818C168.521 24.1818 170.464 22.3409 170.464 20.0909C170.464 17.8409 168.521 16 166.169 16C163.817 16 161.874 17.8409 161.874 20.0909C161.874 22.3409 163.817 24.1818 166.169 24.1818ZM180.187 30.7273V72.8636C180.187 76.8523 178.55 79.1023 174.869 79.1023H173.744V84.7273H174.971C182.539 84.7273 186.221 80.125 186.221 72.8636V30.7273H180.187ZM183.153 24.1818C185.505 24.1818 187.448 22.3409 187.448 20.0909C187.448 17.8409 185.505 16 183.153 16C180.8 16 178.857 17.8409 178.857 20.0909C178.857 22.3409 180.8 24.1818 183.153 24.1818ZM197.273 70H203.307V30.7273H197.273V70ZM200.341 24.1818C202.693 24.1818 204.636 22.3409 204.636 20.0909C204.636 17.8409 202.693 16 200.341 16C197.989 16 196.045 17.8409 196.045 20.0909C196.045 22.3409 197.989 24.1818 200.341 24.1818ZM220.393 46.375C220.393 39.5227 224.637 35.6364 230.415 35.6364C236.015 35.6364 239.415 39.2926 239.415 45.4545V70H245.45V45.0455C245.45 35.0227 240.106 30.2159 232.154 30.2159C226.222 30.2159 222.54 32.875 220.7 36.8636H220.188V30.7273H214.359V70H220.393V46.375Z" fill="#111827"/>
<defs>
<clipPath id="clip0">
<rect width="77.6984" height="76.6985" fill="white" transform="translate(0 5)"/>
</clipPath>
</defs>
</svg>
