<svg width="274" height="101" viewBox="0 0 274 101" fill="none" xmlns="http://www.w3.org/2000/svg">
  <rect width="274" height="101" rx="6" fill="white"/>
  <g clip-path="url(#clip0)">
    <circle cx="50" cy="51" r="7" fill="#8B5CF6"/>
    <path d="M37 51C37 58 23.866 58 20 58C16.134 58 13 54.866 13 51C13 47.134 16.134 44 20 44C23.866 44 37 44 37 51Z" fill="#8B5CF6"/>
    <path d="M35.7487 36.7487C30.799 41.6985 18.6834 29.5829 15.9497 26.8492C13.2161 24.1156 13.2161 19.6834 15.9497 16.9497C18.6834 14.2161 23.1156 14.2161 25.8492 16.9497C28.5829 19.6834 40.6985 31.799 35.7487 36.7487Z" fill="#8B5CF6"/>
    <path d="M63.9497 36.7487C59 31.799 71.1155 19.6834 73.8492 16.9498C76.5829 14.2161 81.015 14.2161 83.7487 16.9498C86.4824 19.6834 86.4824 24.1156 83.7487 26.8493C81.015 29.5829 68.8995 41.6985 63.9497 36.7487Z" fill="#8B5CF6"/>
    <path d="M62.9497 63.9498C67.8994 59 80.015 71.1156 82.7487 73.8492C85.4823 76.5829 85.4823 81.0151 82.7487 83.7487C80.015 86.4824 75.5828 86.4824 72.8492 83.7487C70.1155 81.0151 57.9999 68.8995 62.9497 63.9498Z" fill="#8B5CF6"/>
    <path d="M36.7487 63.9497C41.6984 68.8995 29.5829 81.0151 26.8492 83.7487C24.1155 86.4824 19.6834 86.4824 16.9497 83.7487C14.216 81.0151 14.216 76.5829 16.9497 73.8492C19.6834 71.1156 31.7989 59 36.7487 63.9497Z" fill="#8B5CF6"/>
    <path d="M63 51C63 44 76.134 44 80 44C83.866 44 87 47.134 87 51C87 54.866 83.866 58 80 58C76.134 58 63 58 63 51Z" fill="#8B5CF6"/>
    <path d="M50 38C43 38 43 27.866 43 24C43 20.134 46.134 17 50 17C53.866 17 57 20.134 57 24C57 27.866 57 38 50 38Z" fill="#C4B5FD"/>
    <path d="M50 63C57 63 57 73.134 57 77C57 80.866 53.866 84 50 84C46.134 84 43 80.866 43 77C43 73.134 43 63 50 63Z" fill="#C4B5FD"/>
  </g>
  <path d="M111.523 77V37.7273H117.352V43.8636H117.864C118.682 41.767 120.003 40.1392 121.827 38.9801C123.651 37.804 125.841 37.2159 128.398 37.2159C130.989 37.2159 133.145 37.804 134.866 38.9801C136.605 40.1392 137.96 41.767 138.932 43.8636H139.341C140.347 41.8352 141.855 40.2244 143.866 39.0312C145.878 37.821 148.29 37.2159 151.102 37.2159C154.614 37.2159 157.486 38.3153 159.719 40.5142C161.952 42.696 163.068 46.0966 163.068 50.7159V77H157.034V50.7159C157.034 47.8182 156.241 45.7472 154.656 44.5028C153.071 43.2585 151.205 42.6364 149.057 42.6364C146.295 42.6364 144.156 43.4716 142.639 45.142C141.122 46.7955 140.364 48.892 140.364 51.4318V77H134.227V50.1023C134.227 47.8693 133.503 46.071 132.054 44.7074C130.605 43.3267 128.739 42.6364 126.455 42.6364C124.886 42.6364 123.42 43.054 122.057 43.8892C120.71 44.7244 119.619 45.8835 118.784 47.3665C117.966 48.8324 117.557 50.5284 117.557 52.4545V77H111.523ZM174.101 77V37.7273H180.135V77H174.101ZM177.169 31.1818C175.993 31.1818 174.979 30.7812 174.126 29.9801C173.291 29.179 172.874 28.2159 172.874 27.0909C172.874 25.9659 173.291 25.0028 174.126 24.2017C174.979 23.4006 175.993 23 177.169 23C178.345 23 179.351 23.4006 180.186 24.2017C181.038 25.0028 181.464 25.9659 181.464 27.0909C181.464 28.2159 181.038 29.179 180.186 29.9801C179.351 30.7812 178.345 31.1818 177.169 31.1818ZM191.187 37.7273H197.221V79.8636C197.221 82.2841 196.803 84.3807 195.968 86.1534C195.15 87.9261 193.906 89.2983 192.235 90.2699C190.582 91.2415 188.494 91.7273 185.971 91.7273C185.766 91.7273 185.562 91.7273 185.357 91.7273C185.153 91.7273 184.948 91.7273 184.744 91.7273V86.1023C184.948 86.1023 185.136 86.1023 185.306 86.1023C185.477 86.1023 185.664 86.1023 185.869 86.1023C187.71 86.1023 189.056 85.5568 189.908 84.4659C190.761 83.392 191.187 81.858 191.187 79.8636V37.7273ZM194.153 31.1818C192.977 31.1818 191.962 30.7812 191.11 29.9801C190.275 29.179 189.857 28.2159 189.857 27.0909C189.857 25.9659 190.275 25.0028 191.11 24.2017C191.962 23.4006 192.977 23 194.153 23C195.329 23 196.335 23.4006 197.17 24.2017C198.022 25.0028 198.448 25.9659 198.448 27.0909C198.448 28.2159 198.022 29.179 197.17 29.9801C196.335 30.7812 195.329 31.1818 194.153 31.1818ZM208.273 77V37.7273H214.307V77H208.273ZM211.341 31.1818C210.165 31.1818 209.151 30.7812 208.298 29.9801C207.463 29.179 207.045 28.2159 207.045 27.0909C207.045 25.9659 207.463 25.0028 208.298 24.2017C209.151 23.4006 210.165 23 211.341 23C212.517 23 213.523 23.4006 214.358 24.2017C215.21 25.0028 215.636 25.9659 215.636 27.0909C215.636 28.2159 215.21 29.179 214.358 29.9801C213.523 30.7812 212.517 31.1818 211.341 31.1818ZM231.393 53.375V77H225.359V37.7273H231.188V43.8636H231.7C232.62 41.8693 234.018 40.267 235.893 39.0568C237.768 37.8295 240.188 37.2159 243.154 37.2159C245.813 37.2159 248.14 37.7614 250.134 38.8523C252.129 39.9261 253.68 41.5625 254.788 43.7614C255.896 45.9432 256.45 48.7045 256.45 52.0455V77H250.415V52.4545C250.415 49.3693 249.614 46.9659 248.012 45.2443C246.41 43.5057 244.211 42.6364 241.415 42.6364C239.489 42.6364 237.768 43.054 236.251 43.8892C234.751 44.7244 233.566 45.9432 232.697 47.5455C231.827 49.1477 231.393 51.0909 231.393 53.375Z" fill="#27272A"/>
  <defs>
    <clipPath id="clip0">
      <rect width="77.6984" height="76.6985" fill="white" transform="translate(11 12)"/>
    </clipPath>
  </defs>
</svg>
